<?xml version="1.0" encoding="utf-8"?>
<!-- Generator: Adobe Illustrator 16.0.0, SVG Export Plug-In . SVG Version: 6.00 Build 0)  -->
<!DOCTYPE svg PUBLIC "-//W3C//DTD SVG 1.1//EN" "http://www.w3.org/Graphics/SVG/1.1/DTD/svg11.dtd">
<svg version="1.1" id="圖層_1" xmlns="http://www.w3.org/2000/svg" xmlns:xlink="http://www.w3.org/1999/xlink" x="0px" y="0px"
	 width="150px" height="40px" viewBox="0 0 150 40" enable-background="new 0 0 150 40" xml:space="preserve">
<g>
	<path fill="#444444" d="M38.004,6.272h3.086v3.987h1.769V4.857h3.087v5.402h1.961v3.086h-1.961v21.125h-3.087V13.345H41.09V32.38
		h-3.086V6.272z M49.193,7.076h4.856V4.729h3.601v2.347h6.946v11.961h2.346v2.958h-8.681l3.248,7.909
		c0.428,0.707,0.986,1.062,1.672,1.062h3.345v2.959h-5.37c-1.437,0-2.477-0.825-3.12-2.476l-2.283-6.625l-2.251,6.688
		c-0.493,1.607-1.254,2.412-2.283,2.412h-3.988v-2.959h2.09c0.58,0,1.041-0.354,1.383-1.063l2.765-7.91h-6.074v-2.957h6.655v-9.004
		h-4.855V7.075L49.193,7.076L49.193,7.076z M57.65,10.034v9.003h3.344v-9.003H57.65z"/>
	<path fill="#444444" d="M99.868,23.54v2.957H86.846V34.6h-3.568v-8.103H70.254V23.54h13.021v-1.416h3.57v1.416H99.868L99.868,23.54
		z M75.303,4.858h3.569l-4.759,5.949h5.306v1.125c0,0.278-0.149,0.579-0.451,0.899l-4.95,5.435h2.443
		c0.172,0,0.257-0.128,0.257-0.386v-1.703h2.573v2.861c0,1.2-0.782,1.8-2.348,1.8h-6.56v-1.96c0-0.387,0.161-0.783,0.482-1.189
		l4.051-4.342h-4.404v-2.411c0-0.343,0.118-0.696,0.354-1.062L75.303,4.858z M76.846,27.911h3.603l-1.479,4.471
		c-0.385,1.027-1.307,1.543-2.765,1.543h-5.563v-2.538h4.404c0.279,0,0.525-0.205,0.74-0.613L76.846,27.911z M82.857,4.6h3.248
		l-0.674,2.09h3.762v12.347c0,1.438-0.645,2.154-1.93,2.154h-6.688V6.69h1.639L82.857,4.6z M83.275,12.735h3.185V9.23h-3.185V12.735
		z M85.85,18.619c0.407,0,0.611-0.246,0.611-0.74v-2.701h-3.184v3.441H85.85z M89.805,27.911h3.603l1.383,2.896
		c0.149,0.385,0.431,0.58,0.836,0.58h3.697v2.538h-5.111c-1.329,0-2.188-0.493-2.573-1.479L89.805,27.911z M94.596,4.858h3.603
		l-4.276,5.949h5.018v1.125c0,0.278-0.142,0.579-0.418,0.899l-4.728,5.435h2.572c0.172,0,0.257-0.128,0.257-0.386v-1.703h2.57v2.861
		c0,1.2-0.76,1.8-2.28,1.8h-6.688v-1.96c0-0.387,0.139-0.783,0.418-1.189l3.825-4.342h-4.116v-2.411
		c0-0.343,0.099-0.696,0.291-1.062L94.596,4.858z"/>
	<path fill="#ED7000" d="M103.982,28.395h3.185l-0.965,4.502c-0.259,1.049-0.88,1.574-1.865,1.574h-1.511v-2.959h0.48
		c0.107,0,0.192-0.183,0.258-0.548L103.982,28.395z M103.438,5.243h15.726v10.322c0,1.629-0.826,2.442-2.478,2.442h-3.44v1.158
		h5.659v3.44h-5.659v1.414h6.271v3.504h-16.332V24.02h6.334v-1.414h-5.658v-3.439h5.658v-1.158h-6.078V5.243H103.438z
		 M109.516,11.867V8.619h-2.572v0.74h1.769L109.516,11.867z M109.516,14.632v-0.74h-1.961l-0.611-2.024v2.765L109.516,14.632
		L109.516,14.632z M107.425,28.395h2.958l0.579,2.604c0.063,0.342,0.172,0.516,0.32,0.516h0.386v2.957h-1.542
		c-0.795,0-1.317-0.492-1.576-1.479L107.425,28.395z M111.411,28.395h2.959l0.578,2.604c0.063,0.342,0.172,0.516,0.321,0.516h0.387
		v2.957h-1.545c-0.793,0-1.317-0.492-1.575-1.479L111.411,28.395z M113.243,8.619v3.184l0.868-2.443h1.673V8.62L113.243,8.619
		L113.243,8.619z M115.044,14.632c0.494,0,0.74-0.246,0.74-0.74v-2.09l-0.74,2.09h-1.801v0.74H115.044z M115.527,28.395h2.957
		l0.517,2.604c0.043,0.342,0.14,0.516,0.289,0.516h0.354v2.957h-1.543c-0.773,0-1.268-0.492-1.479-1.479L115.527,28.395z
		 M122.602,4.6h4.244v3.891h5.819v3.569h-5.819v5.947h5.819v13.376c0,1.973-0.985,2.959-2.959,2.959h-9.679V18.007h2.572V4.6
		H122.602z M127.745,30.837c0.537,0,0.805-0.385,0.805-1.155V21.45h-4.405v9.39h3.602L127.745,30.837L127.745,30.837z"/>
	<g>
		<path fill="#ED7000" d="M33.335,31.475c0,1.729-1.399,3.125-3.125,3.125H6.46c-1.726,0-3.125-1.396-3.125-3.125V7.725
			C3.335,6,4.734,4.6,6.46,4.6h23.75c1.726,0,3.125,1.399,3.125,3.125V31.475z"/>
		<path fill="#FFFFFF" d="M11.225,10.151c1.028-0.479,2.326,0.011,2.815,1.062l2.026,4.344c0.41-1.057,1.792-1.807,3.213-1.165
			c0.703-1.085,2.263-1.169,3.044-0.55c1.956-1.387,3.545-0.49,4.573,1.713c0.056,0.119,0.26,0.582,0.316,0.701
			c1.265,2.69,0.209,3.975,0.844,6.158c0.158,0.545-0.941,1.514-1.455,1.752c0,0,1.132,2.016-2.349,3.639
			c-2.506,1.168-3.86-0.742-3.86-0.742c-0.799,0.373-2.194,0.461-2.902-0.153c-1.151-0.992-4.069-3.156-5.545-3.109
			c-0.95,0.031-1.699-0.34-2.078-1.149c-0.694-1.486,0.356-3.225,2.016-3.275c0.437-0.014,0.894,0.023,1.372,0.11l-3.028-6.492
			C9.751,11.968,10.212,10.623,11.225,10.151z"/>
	</g>
</g>
</svg>
