<?xml version="1.0" encoding="utf-8"?>
<!-- Generator: Adobe Illustrator 16.0.0, SVG Export Plug-In . SVG Version: 6.00 Build 0)  -->
<!DOCTYPE svg PUBLIC "-//W3C//DTD SVG 1.1//EN" "http://www.w3.org/Graphics/SVG/1.1/DTD/svg11.dtd">
<svg version="1.1" id="圖層_1" xmlns="http://www.w3.org/2000/svg" xmlns:xlink="http://www.w3.org/1999/xlink" x="0px" y="0px"
	 width="119.5px" height="40px" viewBox="0 0 119.5 40" enable-background="new 0 0 119.5 40" xml:space="preserve">
<g>
	<path fill="#231815" d="M6.108,4.895h3.498v4.519h2.005V3.292h3.498v6.122h2.223v3.499h-2.223v23.941h-3.498V12.912H9.606v21.573
		H6.108V4.895z M18.79,5.806h5.503v-2.66h4.081v2.66h7.871v13.556h2.66v3.353h-9.839l3.681,8.965
		c0.486,0.802,1.117,1.203,1.895,1.203h3.79v3.352h-6.086c-1.627,0-2.806-0.936-3.534-2.806l-2.588-7.507l-2.551,7.58
		c-0.559,1.822-1.421,2.732-2.587,2.732h-4.519v-3.352h2.368c0.656,0,1.179-0.401,1.567-1.203l3.134-8.965h-6.888v-3.353h7.544
		V9.159H18.79V5.806z M28.374,9.159v10.204h3.79V9.159H28.374z"/>
	<path fill="#231815" d="M76.222,24.464v3.353H61.463V37h-4.045v-9.184h-14.76v-3.353h14.76v-1.603h4.045v1.603H76.222z
		 M48.381,3.292h4.045l-5.395,6.742h6.014v1.275c0,0.316-0.17,0.656-0.51,1.021l-5.613,6.159h2.77c0.195,0,0.293-0.146,0.293-0.438
		v-1.931h2.914v3.243c0,1.36-0.887,2.04-2.66,2.04h-7.434V19.18c0-0.438,0.182-0.887,0.547-1.349l4.592-4.919H42.95v-2.733
		c0-0.388,0.134-0.789,0.401-1.203L48.381,3.292z M50.129,29.42h4.082l-1.676,5.065c-0.438,1.167-1.482,1.749-3.135,1.749h-6.305
		v-2.879h4.993c0.315,0,0.595-0.23,0.838-0.691L50.129,29.42z M56.944,3h3.681l-0.766,2.369h4.264v13.994
		c0,1.628-0.729,2.441-2.187,2.441h-7.58V5.369h1.858L56.944,3z M57.418,12.22h3.607V8.248h-3.607V12.22z M60.333,18.889
		c0.462,0,0.692-0.279,0.692-0.838v-3.061h-3.607v3.899H60.333z M64.815,29.42h4.081l1.567,3.279
		c0.17,0.438,0.486,0.656,0.947,0.656h4.191v2.879h-5.795c-1.506,0-2.478-0.559-2.915-1.676L64.815,29.42z M70.245,3.292h4.081
		l-4.847,6.742h5.686v1.275c0,0.316-0.158,0.656-0.474,1.021l-5.357,6.159h2.915c0.194,0,0.292-0.146,0.292-0.438v-1.931h2.915
		v3.243c0,1.36-0.862,2.04-2.587,2.04h-7.58V19.18c0-0.438,0.158-0.887,0.474-1.349l4.337-4.919h-4.665v-2.733
		c0-0.388,0.109-0.789,0.328-1.203L70.245,3.292z"/>
	<path fill="#FFFFFF" d="M80.886,29.967h3.608L83.4,35.068c-0.291,1.189-0.996,1.785-2.113,1.785h-1.713v-3.352h0.547
		c0.121,0,0.219-0.207,0.291-0.619L80.886,29.967z M80.267,3.729h17.82v11.698c0,1.846-0.936,2.77-2.807,2.77h-3.899v1.312h6.414
		v3.899h-6.414v1.604h7.106v3.972H79.975v-3.972h7.18v-1.604H80.74v-3.899h6.414v-1.312h-6.888V3.729z M87.154,11.236V7.555h-2.916
		v0.838h2.005L87.154,11.236z M87.154,14.37v-0.838h-2.224l-0.692-2.296v3.134H87.154z M84.785,29.967h3.353l0.656,2.951
		c0.073,0.389,0.194,0.584,0.364,0.584h0.438v3.352h-1.749c-0.899,0-1.494-0.559-1.786-1.676L84.785,29.967z M89.304,29.967h3.354
		l0.655,2.951c0.073,0.389,0.194,0.584,0.364,0.584h0.438v3.352h-1.749c-0.898,0-1.494-0.559-1.786-1.676L89.304,29.967z
		 M91.381,7.555v3.608l0.984-2.77h1.895V7.555H91.381z M93.422,14.37c0.559,0,0.838-0.279,0.838-0.838v-2.369l-0.838,2.369h-2.041
		v0.838H93.422z M93.969,29.967h3.353l0.583,2.951c0.049,0.389,0.158,0.584,0.328,0.584h0.4v3.352h-1.749
		c-0.874,0-1.434-0.559-1.676-1.676L93.969,29.967z M101.985,3h4.811v4.409h6.596v4.045h-6.596v6.742h6.596v15.159
		c0,2.235-1.117,3.354-3.353,3.354H99.07V18.196h2.915V3z M107.816,32.736c0.607,0,0.911-0.438,0.911-1.313v-9.328h-4.992v10.641
		H107.816z"/>
</g>
</svg>
